<svg width="64" height="64" viewBox="0 0 64 64" fill="none" xmlns="http://www.w3.org/2000/svg">
  <path d="M28.4 8H35.6L38.1 15.1C40 15.8 41.7 16.8 43.3 18L50.7 16.5L54.3 22.8L49.2 28.4C49.4 29.4 49.5 30.7 49.5 32C49.5 33.3 49.4 34.6 49.2 35.6L54.3 41.2L50.7 47.5L43.3 46C41.7 47.2 40 48.2 38.1 48.9L35.6 56H28.4L25.9 48.9C24 48.2 22.3 47.2 20.7 46L13.3 47.5L9.7 41.2L14.8 35.6C14.6 34.6 14.5 33.3 14.5 32C14.5 30.7 14.6 29.4 14.8 28.4L9.7 22.8L13.3 16.5L20.7 18C22.3 16.8 24 15.8 25.9 15.1L28.4 8Z" fill="#F6F0FF" stroke="#8B63F6" stroke-width="4" stroke-linejoin="round"/>
  <circle cx="32" cy="32" r="8.5" fill="#8B63F6"/>
</svg>
