<svg width="96" height="96" viewBox="0 0 96 96" fill="none" xmlns="http://www.w3.org/2000/svg">
  <rect width="96" height="96" rx="24" fill="#FFF0F6"/>
  <path d="M48 47C36 39 34 27 43 23C50 20 55 28 48 47Z" fill="#FFB6C8" stroke="#E86AA7" stroke-width="4"/>
  <path d="M49 47C58 36 70 36 72 45C74 53 63 56 49 47Z" fill="#FFB6C8" stroke="#E86AA7" stroke-width="4"/>
  <path d="M49 49C62 53 65 65 57 70C50 75 43 66 49 49Z" fill="#FFB6C8" stroke="#E86AA7" stroke-width="4"/>
  <path d="M47 49C39 60 27 59 25 50C24 42 35 39 47 49Z" fill="#FFB6C8" stroke="#E86AA7" stroke-width="4"/>
  <circle cx="48" cy="48" r="6" fill="#FFC85C"/>
</svg>
