<svg width="160" height="160" viewBox="0 0 160 160" fill="none" xmlns="http://www.w3.org/2000/svg">
  <rect width="160" height="160" rx="80" fill="#FFF7F2"/>
  <circle cx="80" cy="80" r="64" fill="#FFE9DC"/>
  <path d="M45 68C45 47 60 31 80 31C100 31 115 47 115 68V106C115 123 101 136 80 136C59 136 45 123 45 106V68Z" fill="#FFFDF9"/>
  <circle cx="61" cy="51" r="21" fill="#FFFDF9"/>
  <circle cx="99" cy="51" r="21" fill="#FFFDF9"/>
  <circle cx="64" cy="79" r="7" fill="#3F3330"/>
  <circle cx="96" cy="79" r="7" fill="#3F3330"/>
  <path d="M76 92C79 95 82 95 85 92" stroke="#3F3330" stroke-width="5" stroke-linecap="round"/>
  <path d="M73 103C78 109 83 109 88 103" stroke="#E86AA7" stroke-width="5" stroke-linecap="round"/>
  <path d="M120 30L124 40L134 44L124 48L120 58L116 48L106 44L116 40L120 30Z" fill="#FFC85C"/>
</svg>
